<mxfile host="app.diagrams.net" modified="2024-05-21T07:15:19.364Z" agent="Mozilla/5.0 (Macintosh; Intel Mac OS X 10_15_7) AppleWebKit/537.36 (KHTML, like Gecko) Chrome/124.0.0.0 Safari/537.36" version="24.4.0" etag="_YbMr_ybESSoTDmGzT0U" type="github">
  <diagram name="第 1 页" id="1qqWGqqX0jNzk8FhyLNJ">
    <mxGraphModel>
      <root>
        <mxCell id="0" />
        <mxCell id="1" parent="0" />
      </root>
    </mxGraphModel>
  </diagram>
</mxfile>
